# xmcd
#
# Track frame offsets: 
#        225
#        26661
#        38012
#        59161
#        67877
#        80391
#        92933
#        102178
#        112604
#        139703
#        152713
#        163834
#        179718
#        191656
#        202002
#        209184
#        219393
#        229502
#        239566
#        249173
#
# Disc length: 3452 seconds
#
# Revision: 1
# Processed by: cddbd v1.5.2PL0 Copyright (c) Steve Scherf et al.
# Submitted via: ExactAudioCopy v0.99pb5
#
DISCID=200d7914
DTITLE=Jimmy Dean - One Last Time
DYEAR=2003
DGENRE=Country
TTITLE0=I.O.U.
TTITLE1=Skip A Rope
TTITLE2=This Old House
TTITLE3=Big Bad John
TTITLE4=A Rose Is A Rose Is A Rose
TTITLE5=Frilly Shirt
TTITLE6=It'll Be Easy
TTITLE7=Read 'Em and Weep
TTITLE8=Sleeping Beauty
TTITLE9=One Last Time
TTITLE10=Nine Pound Hammer
TTITLE11=Me and Red And Bill
TTITLE12=Let's Pick Up the Pieces
TTITLE13=Bill Bailey
TTITLE14=The Last Letter
TTITLE15=That New Old Fashioned Love
TTITLE16=A Thing Called Love
TTITLE17=Never Is a Long Long Day
TTITLE18=If It's Wrong To Love You
TTITLE19=When It's Sleepy Time Down South
EXTD=
EXTT0=
EXTT1=
EXTT2=
EXTT3=
EXTT4=
EXTT5=
EXTT6=
EXTT7=
EXTT8=
EXTT9=
EXTT10=
EXTT11=
EXTT12=
EXTT13=
EXTT14=
EXTT15=
EXTT16=
EXTT17=
EXTT18=
EXTT19=
PLAYORDER=
